# xmcd
#
# Track frame offsets: 
#        150
#        12384
#        22623
#        37814
#        49127
#        60725
#        72821
#        83718
#        97713
#        110731
#        121390
#        132163
#        143936
#        155393
#        168124
#        179496
#        189462
#        204860
#
# Disc length: 2895 seconds
#
# Revision: 0
# Processed by: cddbd v1.4PL0 Copyright (c) Steve Scherf et al.
# Submitted via: ExactAudioCopy v0.90b4
#
DISCID=e10b4d12
DTITLE=Various Artist - New York City Blues Disc 2
DYEAR=2001
DGENRE=Blues
TTITLE0=Brownie McGhee - My Bulldog Blues
TTITLE1=Brownie McGhee - Key To The Highway
TTITLE2=Champion Jack Dupree - I Think You Need A Shot
TTITLE3=Dennis McMillan - Paper Wooden Daddy
TTITLE4=Dennis McMillan - Woke Up This Morning
TTITLE5=Marylin Scott - I Got What My Daddy Likes
TTITLE6=Ralph Willis - Going To Virginia
TTITLE7=Gabriel Brown - Blackjack Blues
TTITLE8=Sonny and Lonnie - South West Pacific Blues
TTITLE9=Leroy Dallas - I'm Going Away
TTITLE10=Sticks McGhee - Baby Baby Blues
TTITLE11=Big Chief Ellis - Big Chief's Blues
TTITLE12=Tarheel Slim - Somebody Changed The Lock
TTITLE13=Sonny Terry - Airplane Blues
TTITLE14=Ralph Willis - Cool That Thing
TTITLE15=Carolina Slim - Mama's Boogie
TTITLE16=Sonny Terry - Telephone Blues
TTITLE17=Sticks McGhee - She's Gone
EXTD=
EXTT0=
EXTT1=
EXTT2=
EXTT3=
EXTT4=
EXTT5=
EXTT6=
EXTT7=
EXTT8=
EXTT9=
EXTT10=
EXTT11=
EXTT12=
EXTT13=
EXTT14=
EXTT15=
EXTT16=
EXTT17=
PLAYORDER=
